<mxfile host="app.diagrams.net" agent="Mozilla/5.0 (Windows NT 10.0; Win64; x64) AppleWebKit/537.36 (KHTML, like Gecko) Chrome/131.0.0.0 Safari/537.36 Edg/131.0.0.0" version="25.0.1">
  <diagram name="PÃ¡gina-1" id="dIY9tYUnDzIOE4lb0q4G">
    <mxGraphModel dx="1226" dy="665" grid="1" gridSize="10" guides="1" tooltips="1" connect="1" arrows="1" fold="1" page="1" pageScale="1" pageWidth="827" pageHeight="1169" math="0" shadow="0">
      <root>
        <mxCell id="0" />
        <mxCell id="1" parent="0" />
        <mxCell id="d9tdJYP-EX85nCDQeSfC-6" value="" style="shape=image;html=1;verticalAlign=top;verticalLabelPosition=bottom;labelBackgroundColor=#ffffff;imageAspect=0;aspect=fixed;image=https://cdn0.iconfinder.com/data/icons/green-world-colored/80/sun-solar-panel-green-energy-plug-128.png" vertex="1" parent="1">
          <mxGeometry x="40" y="40" width="80" height="80" as="geometry" />
        </mxCell>
        <mxCell id="d9tdJYP-EX85nCDQeSfC-7" value="Setting" style="label;whiteSpace=wrap;html=1;align=center;verticalAlign=bottom;spacingLeft=0;spacingBottom=4;imageAlign=center;imageVerticalAlign=top;image=img/clipart/Gear_128x128.png" vertex="1" parent="1">
          <mxGeometry x="240" y="40" width="60" height="70" as="geometry" />
        </mxCell>
        <mxCell id="d9tdJYP-EX85nCDQeSfC-8" value="" style="html=1;verticalLabelPosition=bottom;align=center;labelBackgroundColor=#ffffff;verticalAlign=top;strokeWidth=2;strokeColor=#0080F0;shadow=0;dashed=0;shape=mxgraph.ios7.icons.monitor;" vertex="1" parent="1">
          <mxGeometry x="454" y="45" width="56" height="40" as="geometry" />
        </mxCell>
        <UserObject label="&lt;b&gt;Monitoring&lt;/b&gt;" placeholders="1" name="Variable" id="d9tdJYP-EX85nCDQeSfC-9">
          <mxCell style="text;html=1;strokeColor=none;fillColor=none;align=center;verticalAlign=middle;whiteSpace=wrap;overflow=hidden;" vertex="1" parent="1">
            <mxGeometry x="442" y="85" width="80" height="20" as="geometry" />
          </mxCell>
        </UserObject>
        <mxCell id="d9tdJYP-EX85nCDQeSfC-19" value="" style="shape=ext;double=1;rounded=0;whiteSpace=wrap;html=1;" vertex="1" parent="1">
          <mxGeometry x="240" y="130" width="110" height="30" as="geometry" />
        </mxCell>
        <UserObject label="Max Solar Power" placeholders="1" name="Variable" id="d9tdJYP-EX85nCDQeSfC-23">
          <mxCell style="text;html=1;strokeColor=none;fillColor=none;align=center;verticalAlign=middle;whiteSpace=wrap;overflow=hidden;" vertex="1" parent="1">
            <mxGeometry x="240" y="135" width="110" height="15" as="geometry" />
          </mxCell>
        </UserObject>
        <mxCell id="d9tdJYP-EX85nCDQeSfC-24" value="" style="shape=ext;double=1;rounded=0;whiteSpace=wrap;html=1;" vertex="1" parent="1">
          <mxGeometry x="360" y="130" width="40" height="30" as="geometry" />
        </mxCell>
        <mxCell id="d9tdJYP-EX85nCDQeSfC-26" value="" style="shape=ext;double=1;rounded=0;whiteSpace=wrap;html=1;" vertex="1" parent="1">
          <mxGeometry x="522" y="205" width="48" height="30" as="geometry" />
        </mxCell>
        <UserObject label="PV1 (V)" placeholders="1" name="Variable" id="d9tdJYP-EX85nCDQeSfC-27">
          <mxCell style="text;html=1;strokeColor=none;fillColor=none;align=center;verticalAlign=middle;whiteSpace=wrap;overflow=hidden;" vertex="1" parent="1">
            <mxGeometry x="507" y="212.5" width="78" height="15" as="geometry" />
          </mxCell>
        </UserObject>
        <mxCell id="d9tdJYP-EX85nCDQeSfC-28" value="" style="shape=ext;double=1;rounded=0;whiteSpace=wrap;html=1;" vertex="1" parent="1">
          <mxGeometry x="600" y="205" width="40" height="30" as="geometry" />
        </mxCell>
        <mxCell id="d9tdJYP-EX85nCDQeSfC-29" value="" style="shape=ext;double=1;rounded=0;whiteSpace=wrap;html=1;" vertex="1" parent="1">
          <mxGeometry x="685" y="205" width="48" height="30" as="geometry" />
        </mxCell>
        <UserObject label="PV2 (V)" placeholders="1" name="Variable" id="d9tdJYP-EX85nCDQeSfC-30">
          <mxCell style="text;html=1;strokeColor=none;fillColor=none;align=center;verticalAlign=middle;whiteSpace=wrap;overflow=hidden;" vertex="1" parent="1">
            <mxGeometry x="670" y="212.5" width="78" height="15" as="geometry" />
          </mxCell>
        </UserObject>
        <mxCell id="d9tdJYP-EX85nCDQeSfC-31" value="" style="shape=ext;double=1;rounded=0;whiteSpace=wrap;html=1;" vertex="1" parent="1">
          <mxGeometry x="763" y="205" width="40" height="30" as="geometry" />
        </mxCell>
        <mxCell id="d9tdJYP-EX85nCDQeSfC-33" value="" style="shape=ext;double=1;rounded=0;whiteSpace=wrap;html=1;" vertex="1" parent="1">
          <mxGeometry x="522" y="330" width="48" height="30" as="geometry" />
        </mxCell>
        <UserObject label="PV1 (A)" placeholders="1" name="Variable" id="d9tdJYP-EX85nCDQeSfC-34">
          <mxCell style="text;html=1;strokeColor=none;fillColor=none;align=center;verticalAlign=middle;whiteSpace=wrap;overflow=hidden;" vertex="1" parent="1">
            <mxGeometry x="507" y="337.5" width="78" height="15" as="geometry" />
          </mxCell>
        </UserObject>
        <mxCell id="d9tdJYP-EX85nCDQeSfC-35" value="" style="shape=ext;double=1;rounded=0;whiteSpace=wrap;html=1;" vertex="1" parent="1">
          <mxGeometry x="685" y="330" width="48" height="30" as="geometry" />
        </mxCell>
        <UserObject label="PV2 (A)" placeholders="1" name="Variable" id="d9tdJYP-EX85nCDQeSfC-36">
          <mxCell style="text;html=1;strokeColor=none;fillColor=none;align=center;verticalAlign=middle;whiteSpace=wrap;overflow=hidden;" vertex="1" parent="1">
            <mxGeometry x="670" y="337.5" width="78" height="15" as="geometry" />
          </mxCell>
        </UserObject>
        <mxCell id="d9tdJYP-EX85nCDQeSfC-37" value="" style="shape=ext;double=1;rounded=0;whiteSpace=wrap;html=1;" vertex="1" parent="1">
          <mxGeometry x="600" y="330" width="40" height="30" as="geometry" />
        </mxCell>
        <mxCell id="d9tdJYP-EX85nCDQeSfC-38" value="" style="shape=ext;double=1;rounded=0;whiteSpace=wrap;html=1;" vertex="1" parent="1">
          <mxGeometry x="763" y="330" width="40" height="30" as="geometry" />
        </mxCell>
        <mxCell id="d9tdJYP-EX85nCDQeSfC-39" value="" style="shape=ext;double=1;rounded=0;whiteSpace=wrap;html=1;" vertex="1" parent="1">
          <mxGeometry x="240" y="170" width="110" height="30" as="geometry" />
        </mxCell>
        <UserObject label="Max Sell Power" placeholders="1" name="Variable" id="d9tdJYP-EX85nCDQeSfC-40">
          <mxCell style="text;html=1;strokeColor=none;fillColor=none;align=center;verticalAlign=middle;whiteSpace=wrap;overflow=hidden;" vertex="1" parent="1">
            <mxGeometry x="240" y="175" width="110" height="15" as="geometry" />
          </mxCell>
        </UserObject>
        <mxCell id="d9tdJYP-EX85nCDQeSfC-41" value="" style="shape=ext;double=1;rounded=0;whiteSpace=wrap;html=1;" vertex="1" parent="1">
          <mxGeometry x="360" y="170" width="40" height="30" as="geometry" />
        </mxCell>
        <mxCell id="d9tdJYP-EX85nCDQeSfC-42" value="" style="shape=ext;double=1;rounded=0;whiteSpace=wrap;html=1;" vertex="1" parent="1">
          <mxGeometry x="685" y="460" width="48" height="30" as="geometry" />
        </mxCell>
        <UserObject label="kW" placeholders="1" name="Variable" id="d9tdJYP-EX85nCDQeSfC-46">
          <mxCell style="text;html=1;strokeColor=none;fillColor=none;align=center;verticalAlign=middle;whiteSpace=wrap;overflow=hidden;" vertex="1" parent="1">
            <mxGeometry x="670" y="467.5" width="78" height="15" as="geometry" />
          </mxCell>
        </UserObject>
        <mxCell id="d9tdJYP-EX85nCDQeSfC-47" value="" style="shape=ext;double=1;rounded=0;whiteSpace=wrap;html=1;" vertex="1" parent="1">
          <mxGeometry x="760" y="460" width="40" height="30" as="geometry" />
        </mxCell>
        <mxCell id="d9tdJYP-EX85nCDQeSfC-48" value="" style="shape=ext;double=1;rounded=0;whiteSpace=wrap;html=1;" vertex="1" parent="1">
          <mxGeometry x="522" y="460" width="48" height="30" as="geometry" />
        </mxCell>
        <mxCell id="d9tdJYP-EX85nCDQeSfC-49" value="" style="shape=ext;double=1;rounded=0;whiteSpace=wrap;html=1;" vertex="1" parent="1">
          <mxGeometry x="602" y="460" width="40" height="30" as="geometry" />
        </mxCell>
        <UserObject label="kWh&amp;nbsp;" placeholders="1" name="Variable" id="d9tdJYP-EX85nCDQeSfC-50">
          <mxCell style="text;html=1;strokeColor=none;fillColor=none;align=center;verticalAlign=middle;whiteSpace=wrap;overflow=hidden;" vertex="1" parent="1">
            <mxGeometry x="507" y="462.5" width="78" height="15" as="geometry" />
          </mxCell>
        </UserObject>
        <mxCell id="d9tdJYP-EX85nCDQeSfC-51" value="" style="sketch=0;aspect=fixed;pointerEvents=1;shadow=0;dashed=0;html=1;strokeColor=none;labelPosition=center;verticalLabelPosition=bottom;verticalAlign=top;align=center;fillColor=#00188D;shape=mxgraph.mscae.general.graph" vertex="1" parent="1">
          <mxGeometry x="550" y="370" width="80" height="80" as="geometry" />
        </mxCell>
        <mxCell id="d9tdJYP-EX85nCDQeSfC-52" value="" style="shape=ext;double=1;rounded=0;whiteSpace=wrap;html=1;" vertex="1" parent="1">
          <mxGeometry x="543" y="45" width="90" height="30" as="geometry" />
        </mxCell>
        <UserObject label="time(hh:mm)" placeholders="1" name="Variable" id="d9tdJYP-EX85nCDQeSfC-53">
          <mxCell style="text;html=1;strokeColor=none;fillColor=none;align=center;verticalAlign=middle;whiteSpace=wrap;overflow=hidden;" vertex="1" parent="1">
            <mxGeometry x="549" y="47.5" width="78" height="15" as="geometry" />
          </mxCell>
        </UserObject>
        <mxCell id="d9tdJYP-EX85nCDQeSfC-55" value="" style="sketch=0;aspect=fixed;pointerEvents=1;shadow=0;dashed=0;html=1;strokeColor=none;labelPosition=center;verticalLabelPosition=bottom;verticalAlign=top;align=center;fillColor=#00188D;shape=mxgraph.mscae.general.graph" vertex="1" parent="1">
          <mxGeometry x="550" y="240" width="80" height="80" as="geometry" />
        </mxCell>
        <mxCell id="d9tdJYP-EX85nCDQeSfC-56" value="" style="sketch=0;aspect=fixed;pointerEvents=1;shadow=0;dashed=0;html=1;strokeColor=none;labelPosition=center;verticalLabelPosition=bottom;verticalAlign=top;align=center;fillColor=#00188D;shape=mxgraph.mscae.general.graph" vertex="1" parent="1">
          <mxGeometry x="548" y="120" width="80" height="80" as="geometry" />
        </mxCell>
        <mxCell id="d9tdJYP-EX85nCDQeSfC-57" value="" style="sketch=0;aspect=fixed;pointerEvents=1;shadow=0;dashed=0;html=1;strokeColor=none;labelPosition=center;verticalLabelPosition=bottom;verticalAlign=top;align=center;fillColor=#00188D;shape=mxgraph.mscae.general.graph" vertex="1" parent="1">
          <mxGeometry x="700" y="240" width="80" height="80" as="geometry" />
        </mxCell>
        <mxCell id="d9tdJYP-EX85nCDQeSfC-58" value="" style="sketch=0;aspect=fixed;pointerEvents=1;shadow=0;dashed=0;html=1;strokeColor=none;labelPosition=center;verticalLabelPosition=bottom;verticalAlign=top;align=center;fillColor=#00188D;shape=mxgraph.mscae.general.graph" vertex="1" parent="1">
          <mxGeometry x="700" y="120" width="80" height="80" as="geometry" />
        </mxCell>
      </root>
    </mxGraphModel>
  </diagram>
</mxfile>
